<svg width="500" height="500" xmlns="http://www.w3.org/2000/svg" style="vector-effect: non-scaling-stroke;" stroke="null">

 <g stroke="null">
  <title stroke="null">background</title>
  <rect stroke="null" fill="none" id="canvas_background" height="502" width="502" y="-1" x="-1"/>
 </g>
 <g stroke="null">
  <title stroke="null">Layer 1</title>
  <path stroke="null" id="svg_3" fill="#ff007f" d="m22.490035,335.349471c-4.829756,0 -9.472795,-1.881397 -12.843796,-5.193556c-3.460079,-3.408397 -5.372417,-7.976315 -5.372417,-12.727927c0,-4.747311 1.912338,-9.315139 5.372417,-12.631689c6.742094,-6.720556 18.852141,-6.720556 25.683221,0c3.46445,3.31655 5.376789,7.971924 5.376789,12.631689c0,4.751613 -1.912338,9.31953 -5.28343,12.63608c-3.459988,3.404007 -8.107399,5.285404 -12.932783,5.285404z"/>
  <path stroke="null" id="svg_11" fill="#ff007f" d="m480.168059,498.817514l-300.981275,0c-10.477995,0 -18.973455,-8.493346 -18.973455,-18.968737s8.49546,-18.968733 18.973455,-18.968733l282.007824,0l0,-420.516924l-420.626066,0l0,223.9941c0,10.475392 -8.495456,18.968737 -18.973451,18.968737s-18.973452,-8.493345 -18.973452,-18.968737l0,-242.962837c0,-10.475387 8.495456,-18.968733 18.973452,-18.968733l458.572967,0c10.477995,0 18.973455,8.493346 18.973455,18.968733l0,458.454394c0,10.475391 -8.49546,18.968737 -18.973455,18.968737z"/>
  <text stroke="null" style="vector-effect: non-scaling-stroke;" transform="matrix(1,0,0,0.28639864921569824,0,41.40002836659551) " xml:space="preserve" text-anchor="start" font-family="Helvetica, Arial, sans-serif" font-size="24" id="svg_12" y="52.76599" x="56.638609" stroke-opacity="null" stroke-width="0" fill="#000000"/>
  <text stroke="null" transform="matrix(1.3750543249109877,0,0,0.914101621899265,-50.212796319241214,20.66347009232345) " xml:space="preserve" text-anchor="start" font-family="Helvetica, Arial, sans-serif" font-size="120" id="svg_13" y="202.892303" x="78.016102" stroke-opacity="null" stroke-width="0" fill="#ffffff">.NET</text>
  <text font-weight="bold" stroke="null" transform="matrix(1.0665554293930228,0,0,1.8171750088647447,-36.21389373044204,-218.85830015139896) " xml:space="preserve" text-anchor="start" font-family="Oswald, sans-serif" font-size="80" id="svg_28" y="322.776002" x="93.556005" stroke-opacity="null" stroke-width="0" fill="#ffffff">Validator</text>
  <path stroke="null" id="svg_29" fill="#ff007f" d="m23.030576,389.403519c-4.829755,0 -9.472795,-1.881397 -12.843796,-5.193556c-3.460079,-3.408398 -5.372417,-7.976315 -5.372417,-12.727928c0,-4.747311 1.912338,-9.315139 5.372417,-12.631689c6.742094,-6.720556 18.852141,-6.720556 25.683221,0c3.464451,3.31655 5.376789,7.971924 5.376789,12.631689c0,4.751613 -1.912338,9.31953 -5.283431,12.63608c-3.459987,3.404007 -8.107399,5.285404 -12.932783,5.285404z"/>
  <path stroke="null" id="svg_30" fill="#ff007f" d="m22.219765,444.538648c-4.829755,0 -9.472795,-1.881397 -12.843796,-5.193556c-3.460079,-3.408398 -5.372417,-7.976315 -5.372417,-12.727928c0,-4.747311 1.912338,-9.315139 5.372417,-12.631689c6.742094,-6.720556 18.852141,-6.720556 25.683221,0c3.464451,3.31655 5.376789,7.971924 5.376789,12.631689c0,4.751613 -1.912338,9.31953 -5.283431,12.63608c-3.459987,3.404007 -8.107399,5.285404 -12.932783,5.285404z"/>
  <path stroke="null" id="svg_31" fill="#ff007f" d="m22.490035,498.052152c-4.829755,0 -9.472795,-1.881397 -12.843796,-5.193556c-3.460079,-3.408398 -5.372417,-7.976315 -5.372417,-12.727928c0,-4.747311 1.912338,-9.315139 5.372417,-12.631689c6.742094,-6.720556 18.852141,-6.720556 25.683221,0c3.464451,3.31655 5.376789,7.971924 5.376789,12.631689c0,4.751613 -1.912338,9.31953 -5.283431,12.63608c-3.459987,3.404007 -8.107399,5.285404 -12.932783,5.285404z"/>
  <path stroke="null" id="svg_32" fill="#ff007f" d="m72.352346,498.862963c-4.829755,0 -9.472795,-1.881397 -12.843796,-5.193556c-3.460079,-3.408398 -5.372417,-7.976315 -5.372417,-12.727928c0,-4.747311 1.912338,-9.315139 5.372417,-12.631689c6.742094,-6.720556 18.852141,-6.720556 25.683221,0c3.464451,3.31655 5.376789,7.971924 5.376789,12.631689c0,4.751613 -1.912338,9.31953 -5.283431,12.63608c-3.459987,3.404007 -8.107399,5.285404 -12.932783,5.285404z"/>
  <path stroke="null" id="svg_33" fill="#ff007f" d="m125.055037,499.133233c-4.829755,0 -9.472795,-1.881397 -12.843796,-5.193556c-3.460079,-3.408398 -5.372417,-7.976315 -5.372417,-12.727928c0,-4.747311 1.912338,-9.315139 5.372417,-12.631689c6.742094,-6.720556 18.852141,-6.720556 25.683221,0c3.464451,3.31655 5.376789,7.971924 5.376789,12.631689c0,4.751613 -1.912338,9.31953 -5.283431,12.63608c-3.459987,3.404007 -8.107399,5.285404 -12.932783,5.285404z"/>
 </g>
</svg>